# AST/ASF file generated using VICON BodyLanguage
# -----------------------------------------------
:version 1.10
:name VICON
:units
  mass 1.0
  length 0.45
  angle deg
:documentation
   .ast/.asf automatically generated from VICON data using
   VICON BodyBuilder and BodyLanguage model FoxedUp or BRILLIANT.MOD
:root
   order TX TY TZ RX RY RZ
   axis XYZ
   position 0 0 0  
   orientation 0 0 0 
:bonedata
  begin
     id 1 
     name lhipjoint
     direction 0.643824 -0.71708 0.266994 
     length 2.52133 
     axis 0 0 0  XYZ
  end
  begin
     id 2 
     name lfemur
     direction 0.34202 -0.939693 0  
     length 7.51824  
     axis 0 0 20  XYZ
    dof rx ry rz
    limits (-160.0 20.0)
           (-70.0 70.0)
           (-60.0 70.0)
  end
  begin
     id 3 
     name ltibia
     direction 0.34202 -0.939693 0   
     length 7.3685   
     axis 0 0 20   XYZ
    dof rx
    limits (-10.0 170.0)
  end
  begin
     id 4 
     name lfoot
     direction 0.105419 -0.289636 0.951314   
     length 2.20972   
     axis -90 7.62852e-016 20   XYZ
    dof rx rz
    limits (-45.0 90.0)
           (-70.0 20.0)
  end
  begin
     id 5 
     name ltoes
     direction 1.53549e-011 -4.21833e-011 1   
     length 1.10139   
     axis -90 7.62852e-016 20   XYZ
    dof rx
    limits (-90.0 20.0)
  end
  begin
     id 6 
     name rhipjoint
     direction -0.608823 -0.743445 0.276811   
     length 2.43192  
     axis 0 0 0  XYZ 
  end
  begin
     id 7 
     name rfemur
     direction -0.34202 -0.939693 0   
     length 7.69715   
     axis 0 0 -20   XYZ
    dof rx ry rz
    limits (-160.0 20.0)
           (-70.0 70.0)
           (-70.0 60.0)
  end
  begin
     id 8 
     name rtibia
     direction -0.34202 -0.939693 0   
     length 7.44924   
     axis 0 0 -20   XYZ
    dof rx
    limits (-10.0 170.0)
 end
 begin
     id 9 
     name rfoot
     direction -0.103614 -0.284677 0.953007   
     length 2.22623  
     axis -90 -7.62852e-016 -20   XYZ
    dof rx rz
    limits (-45.0 90.0)
           (-20.0 70.0)
  end
  begin
     id 10 
     name rtoes
     direction -1.53537e-011 -4.22026e-011 1   
     length 1.11   
     axis -90 -7.62852e-016 -20   XYZ
    dof rx
    limits (-90.0 20.0)
  end
  begin
     id 11 
     name lowerback
     direction -0.0101212 0.99662 -0.0815298   
     length 2.08277   
     axis 0 0 0   XYZ
    dof rx ry rz
    limits (-20.0 45.0)
           (-30.0 30.0)
           (-30.0 30.0)
  end
  begin
     id 12 
     name upperback
     direction 0.024314 0.999591 -0.0150645   
     length 2.08524   
     axis 0 0 0   XYZ
    dof rx ry rz
    limits (-20.0 45.0)
           (-30.0 30.0)
           (-30.0 30.0)
  end
  begin
     id 13 
     name thorax
     direction 0.0285959 0.999323 0.0231357   
     length 2.09645   
     axis 0 0 0   XYZ
    dof rx ry rz
    limits (-20.0 45.0)
           (-30.0 30.0)
           (-30.0 30.0)
  end
  begin
     id 14 
     name lowerneck
     direction -0.065512 0.979301 0.191515   
     length 1.63798   
     axis 0 0 0   XYZ
    dof rx ry rz
    limits (-20.0 45.0)
           (-30.0 30.0)
           (-30.0 30.0)
  end
  begin
     id 15 
     name upperneck
     direction 0.0498479 0.98191 -0.182667   
     length 1.68731   
     axis 0 0 0   XYZ
    dof rx ry rz
    limits (-20.0 45.0)
           (-30.0 30.0)
           (-30.0 30.0)
  end
  begin
     id 16
     name head
     direction 0.0230358 0.996257 -0.0833175  
     length 1.69785  
     axis 0 0 0   XYZ
    dof rx ry rz
    limits (-20.0 45.0)
           (-30.0 30.0)
           (-30.0 30.0)
  end
  begin
     id 17 
     name lclavicle
     direction 0.967963 0.201165 -0.150269  
     length 3.63976  
     axis 0 0 0   XYZ
    dof ry rz
    limits (-20.0 10.0)
           (0.0 20.0)
  end
  begin
     id 18 
     name lhumerus
     direction 1 -4.48954e-011 -2.92837e-028   
     length 5.32462   
     axis 180 -30 -90   XYZ
    dof rx ry rz
    limits (-60.0 90.0)
           (-90.0 90.0)
           (-90.0 90.0)
  end
  begin
     id 19
     name lradius
     direction 1 -4.48958e-011 -6.39511e-027   
     length 3.48402   
     axis 180 -30 -90   XYZ
    dof rx
    limits (-10.0 170.0)
  end
  begin
     id 20
     name lwrist
     direction 1 -4.48975e-011 -1.1413e-026   
     length 1.74201   
     axis 6.88575e-015 90 90   XYZ
    dof ry
    limits (-180.0 0.0)
 end
  begin
     id 21 
     name lhand
     direction 1 -4.48899e-011 -2.28192e-026   
     length 0.572476   
     axis 1.45643e-014 90 90   XYZ
    dof rx rz
    limits (-90.0 90.0)
           (-45.0 45.0)
  end
  begin
     id 22 
     name lfingers
     direction 1 -4.49155e-011 -4.5684e-026   
     length 0.461545   
     axis 2.91283e-014 90 90   XYZ
    dof rx
    limits (0.0 90.0)
  end
  begin
     id 23
     name lthumb
     direction 0.707107 -6.34943e-011 0.707107   
     length 0.662688   
     axis -90 45 -2.25915e-014   XYZ
    dof rx rz
    limits (-45.0 45.0)
           (-45.0 45.0)
  end
  begin
     id 24 
     name rclavicle
     direction -0.964103 0.264019 -0.0282629   
     length 3.54491  
     axis 0 0 0   XYZ 
    dof ry rz
    limits (-10.0 20.0)
           (-20.0 0.0)
  end
  begin
     id 25 
     name rhumerus
     direction -1 -4.48964e-011 -2.45032e-027  
     length 5.33589   
     axis 180 30 90   XYZ
    dof rx ry rz
    limits (-90.0 60.0)
           (-90.0 90.0)
           (-90.0 90.0)
  end
  begin
     id 26 
     name rradius
     direction -1 -4.48987e-011 -1.55093e-027   
     length 3.64134   
     axis 180 30 90   XYZ
    dof rx
    limits (-10.0 170.0)
  end
  begin
     id 27 
     name rwrist
     direction -1 -4.4897e-011 -1.14128e-026   
     length 1.82067   
     axis 6.88575e-015 -90 -90   XYZ
    dof ry
    limits (-180.0 0.0)
  end
  begin
     id 28
     name rhand
     direction -1 -4.49021e-011 -2.28301e-026   
     length 0.734811   
     axis 1.45643e-014 -90 -90   XYZ
    dof rx rz
    limits (-90.0 90.0)
           (-45.0 45.0)
  end
  begin
     id 29
     name rfingers
     direction -1 -4.48862e-011 -4.56319e-026   
     length 0.592424   
     axis 2.91283e-014 -90 -90   XYZ
    dof rx
    limits (0.0 90.0)
  end
  begin
     id 30
     name rthumb
     direction -0.707107 -6.34978e-011 0.707107   
     length 0.850605   
     axis -90 -45 2.25915e-014   XYZ
    dof rx rz
    limits (-45.0 45.0)
           (-45.0 45.0)
  end
:hierarchy
  begin
    root lhipjoint rhipjoint lowerback
    lhipjoint lfemur
    lfemur ltibia
    ltibia lfoot
    lfoot ltoes
    rhipjoint rfemur
    rfemur rtibia
    rtibia rfoot
    rfoot rtoes
    lowerback upperback
    upperback thorax
    thorax lowerneck lclavicle rclavicle
    lowerneck upperneck
    upperneck head
    lclavicle lhumerus
    lhumerus lradius
    lradius lwrist
    lwrist lhand lthumb
    lhand lfingers
    rclavicle rhumerus
    rhumerus rradius
    rradius rwrist
    rwrist rhand rthumb
    rhand rfingers
  end

#!OML:ASF F:\VICON\USERDATA\INSTALL\rory3\rory3.ASF
:FULLY-SPECIFIED
:DEGREES
87
root 0.371318 17.7383 9.86415 -173.908 -1.17861 -180.409
lowerback 0.453511 -0.182715 -5.77918
upperback -0.246141 -0.278017 1.91124
thorax -0.471997 -0.119211 5.22768
lowerneck -18.8652 0.292377 -8.69708
upperneck 35.6872 -0.35334 2.72885
head 15.8161 -1.96541 2.35043
rclavicle 7.20594e-016 -6.55989e-015
rhumerus -33.2797 -7.35207 -79.0894
rradius 34.0734
rwrist 20.9794
rhand -18.4902 2.67662
rfingers 7.12502
rthumb 7.79725 -27.1596
lclavicle 7.20594e-016 -6.55989e-015
lhumerus -28.9304 10.6641 85.6659
lradius 26.1719
lwrist -11.2401
lhand -11.4493 26.0162
lfingers 7.12502
lthumb 14.5877 55.4832
rfemur -17.6534 3.71217 16.0069
rtibia 35.0856
rfoot -21.7512 -5.93736
rtoes 5.46523
lfemur -10.6482 0.149045 -23.6208
ltibia 22.7527
lfoot -15.5666 2.04557
ltoes -9.71161
88
root 0.365428 17.7382 9.86833 -173.902 -1.10383 -180.416
lowerback 0.583359 -0.195745 -5.76509
upperback -0.273339 -0.30319 1.92303
thorax -0.56968 -0.127999 5.23297
lowerneck -18.8011 0.347845 -8.64031
upperneck 35.7085 -0.296912 2.68262
head 15.8063 -1.94746 2.32944
rclavicle -2.41026e-015 5.96354e-015
rhumerus -33.3237 -7.36918 -79.0681
rradius 34.0874
rwrist 21.0355
rhand -18.4632 2.81491
rfingers 7.12502
rthumb 7.8233 -27.0203
lclavicle -2.41026e-015 5.96354e-015
lhumerus -28.9971 10.7371 85.6492
lradius 26.1796
lwrist -11.3325
lhand -11.6185 25.7648
lfingers 7.12502
lthumb 14.4246 55.2435
rfemur -17.897 3.63468 15.9705
rtibia 35.4611
rfoot -21.664 -5.85862
rtoes 5.50381
lfemur -10.6823 0.260621 -23.6504
ltibia 22.762
lfoot -15.5636 1.95177
ltoes -9.40282
89
root 0.359723 17.7379 9.8742 -173.842 -1.03153 -180.435
lowerback 0.646508 -0.230282 -5.78608
upperback -0.29264 -0.353409 1.93737
thorax -0.618208 -0.151 5.26085
lowerneck -18.8302 0.372655 -8.68025
upperneck 35.8364 -0.303306 2.75025
head 15.8761 -1.96147 2.36358
rclavicle -4.17448e-015 1.92821e-014
rhumerus -33.3179 -7.36049 -79.087
rradius 34.056
rwrist 21.1715
rhand -18.675 3.12876
rfingers 7.12502
rthumb 7.61882 -26.714
lclavicle -4.17448e-015 1.92821e-014
lhumerus -29.0087 10.7053 85.6539
lradius 26.1642
lwrist -11.3531
lhand -11.7367 25.772
lfingers 7.12502
lthumb 14.3107 55.2589
rfemur -18.2281 3.41613 15.9427
rtibia 35.8416
rfoot -21.4334 -5.78077
rtoes 4.89385
lfemur -10.792 0.320039 -23.6912
ltibia 22.8073
lfoot -15.5488 1.9283
ltoes -9.16351
90
root 0.353025 17.7346 9.87983 -173.842 -0.880995 -180.468
lowerback 0.729486 -0.220348 -5.80942
upperback -0.277696 -0.344737 1.94678
thorax -0.650384 -0.145857 5.28435
lowerneck -18.9021 0.305759 -8.99344
upperneck 35.9653 -0.454337 3.12058
head 15.9684 -2.02759 2.55184
rclavicle -3.75206e-015 2.44505e-014
rhumerus -33.2871 -7.29481 -79.101
rradius 34.0571
rwrist 21.0918
rhand -18.7168 3.0227
rfingers 7.12502
rthumb 7.57849 -26.8215
lclavicle -3.75206e-015 2.44505e-014
lhumerus -28.9818 10.7037 85.6678
lradius 26.1665
lwrist -11.3895
lhand -11.7274 25.85
lfingers 7.12502
lthumb 14.3197 55.3362
rfemur -18.5161 3.2082 15.8996
rtibia 36.2554
rfoot -21.2133 -5.62787
rtoes 4.21401
lfemur -10.8212 0.300381 -23.7698
ltibia 22.851
lfoot -15.5692 2.10493
ltoes -9.3684
91
root 0.347356 17.7296 9.88432 -173.869 -0.654117 -180.4
lowerback 0.862476 -0.18205 -5.76029
upperback -0.235978 -0.300135 1.97505
thorax -0.688094 -0.123698 5.28605
lowerneck -19.0109 -2.98411 -7.88567
upperneck 36.0729 0.906411 1.64437
head 16.0889 0.519863 2.56039
rclavicle -1.3418e-015 9.14409e-015
rhumerus -33.2128 -7.26258 -79.1309
rradius 34.1113
rwrist 20.9891
rhand -18.4557 2.70197
rfingers 7.12502
rthumb 7.83048 -27.133
lclavicle -1.3418e-015 9.14409e-015
lhumerus -28.8929 10.7274 85.6535
lradius 26.1918
lwrist -11.402
lhand -11.7819 25.8276
lfingers 7.12502
lthumb 14.2671 55.3175
rfemur -18.7997 3.20282 15.9599
rtibia 36.7117
rfoot -21.1706 -5.59915
rtoes 3.98677
lfemur -10.8039 0.386425 -23.7407
ltibia 22.8509
lfoot -15.575 2.25798
ltoes -9.56836
